# xmcd
#
# Track frame offsets: 
#        150
#        9457
#        21865
#        30547
#        40250
#        52102
#        62345
#        78022
#        89829
#        95990
#        113575
#        130160
#        141362
#        153590
#        167057
#        171872
#        181180
#        188322
#        200245
#        210407
#        221802
#        236825
#        246922
#        257345
#        271842
#        283217
#        295555
#        307419
#
# Disc length: 4247 seconds
#
# Revision: 0
# Processed by: cddbd v1.5.2PL0 Copyright (c) Steve Scherf et al.
# Submitted via: ExactAudioCopy v0.95b4
#
DISCID=9910951c
DTITLE=The El Zagel Plainsmen - Cowboy Hall of Fame Edition
DYEAR=1995
DGENRE=Western
TTITLE0=Hooray for the Cowboys
TTITLE1=Lonely Prairie
TTITLE2=Cattle Call
TTITLE3=Moonlight on the Colorado
TTITLE4=Don't Fence Me In
TTITLE5=Autumn on the trail
TTITLE6=Jesse James
TTITLE7=Down in the valley
TTITLE8=You Ought to Go ta North Dakota
TTITLE9=God Bless America Again
TTITLE10=Ridin' the Canyon
TTITLE11=I Ride Old Paint
TTITLE12=The Auctioneer Song
TTITLE13=In the Garden
TTITLE14=Back in the Saddle
TTITLE15=Blue Shadows
TTITLE16=Chisholm Trail
TTITLE17=Springrtime in the Rockies
TTITLE18=Abilene
TTITLE19=North Dakota Home
TTITLE20=Vaya Con Dios
TTITLE21=Tumble Weeds
TTITLE22=Railroad Corral
TTITLE23=Cool Water
TTITLE24=Song of the Trail
TTITLE25=All Alone in Wyoming
TTITLE26=Wheel of the Wagon
TTITLE27=Cowboy's Dream
EXTD=
EXTT0=
EXTT1=
EXTT2=
EXTT3=
EXTT4=
EXTT5=
EXTT6=
EXTT7=
EXTT8=
EXTT9=
EXTT10=
EXTT11=
EXTT12=
EXTT13=
EXTT14=
EXTT15=
EXTT16=
EXTT17=
EXTT18=
EXTT19=
EXTT20=
EXTT21=
EXTT22=
EXTT23=
EXTT24=
EXTT25=
EXTT26=
EXTT27=
PLAYORDER=
